<?xml version="1.0" encoding="UTF-8"?>
<svg id="Layer_1" data-name="Layer 1" xmlns="http://www.w3.org/2000/svg" viewBox="0 0 23.31 18.76">
  <path d="m4.99,4.72s.08-.23.37-.48c2.33-2.02,15.94-2.51,15.82,3.13-.04,2.07-.6,3.78-4.76,6.65-4.88,3.36-8.53,3.87-9.28,3.81,0,0-.38-.28.35-.72,0,0-1.52.67-.93,1.31.91,1,5.44-.33,8.37-1.66,2.82-1.27,8.59-4.92,8.37-9.11-.24-4.49-5.29-6.22-11.3-6.26-5.98-.05-7.75,2.2-7.97,3.12-.22.91.87.75.96.22Z"/>
  <path d="m17.02,18.44c.31-.19.28-.55.03-.51-.32.06-.38-.27-.8-1.19-.3-.66-1.32-4.7-1.74-6.3,1.55-.39,4.57-.62,6.25-.68,0,0-3.1-1.27-6.54-.71-.93-4.01-1.46-6.37-1.52-6.68.07-.51-.58-2.28-1.13-2.37-.55-.08-1.07,1.64-1.07,1.64l-3.2,8.95c-2.3.63-4.19,1.34-6.84,2.29-.97.44-.26,2.11.68,1.89.46-.1,0-.34.34-.48.81-.34,2.54-.99,5.09-1.76l-1.81,4.71c-.23,1.07,2.09.26,1.98-.15-.24-.88,1.93-5.16,1.93-5.16,1.35-.36,2.91-.85,4.47-1.18.38,1.26,1.59,6.38,2.16,7.12.6.77,1.37.68,1.38.68l.33-.11Zm-7.73-8.37l1.98-6.44s.69,2.72,1.39,5.74c-1.22.17-1.9.38-3.37.69Z"/>
</svg>